<?xml version="1.0" standalone="no"?>
<!DOCTYPE svg PUBLIC "-//W3C//DTD SVG 20010904//EN"
 "http://www.w3.org/TR/2001/REC-SVG-20010904/DTD/svg10.dtd">
<svg version="1.0" xmlns="http://www.w3.org/2000/svg" width="100%" height="100%" viewBox="0 0 180.000000 180.000000" preserveAspectRatio="xMidYMid meet">
<style>
/***************************************************
 * Generated by SVG Artista on 1/9/2021, 3:10:06 AM
 * MIT license (https://opensource.org/licenses/MIT)
 * W. https://svgartista.net
 **************************************************/

@-webkit-keyframes animate-svg-stroke-1 {
  0% {
    stroke-dashoffset: 4618.53271484375px;
    stroke-dasharray: 4618.53271484375px;
  }

  100% {
    stroke-dashoffset: 0;
  }
}

@keyframes animate-svg-stroke-1 {
  0% {
    stroke-dashoffset: 4618.53271484375px;
    stroke-dasharray: 4618.53271484375px;
  }

  100% {
    stroke-dashoffset: 0;
  }
}

@-webkit-keyframes animate-svg-fill-1 {
  0% {
    fill: transparent;
  }

  100% {
    fill: rgb(128, 128, 128);
  }
}

@keyframes animate-svg-fill-1 {
  0% {
    fill: transparent;
  }

  100% {
    fill: rgb(128, 128, 128);
  }
}

.svg-elem-1 {
  -webkit-animation: animate-svg-stroke-1 1s cubic-bezier(0.47, 0, 0.745, 0.715) 1s both,
                       animate-svg-fill-1 0.7s cubic-bezier(0.47, 0, 0.745, 0.715) 2.2s both;
          animation: animate-svg-stroke-1 1s cubic-bezier(0.47, 0, 0.745, 0.715) 1s both,
               animate-svg-fill-1 0.7s cubic-bezier(0.47, 0, 0.745, 0.715) 2.2s both;
}

@-webkit-keyframes animate-svg-stroke-2 {
  0% {
    stroke-dashoffset: 58.77166748046875px;
    stroke-dasharray: 58.77166748046875px;
  }

  100% {
    stroke-dashoffset: 0;
  }
}

@keyframes animate-svg-stroke-2 {
  0% {
    stroke-dashoffset: 58.77166748046875px;
    stroke-dasharray: 58.77166748046875px;
  }

  100% {
    stroke-dashoffset: 0;
  }
}

@-webkit-keyframes animate-svg-fill-2 {
  0% {
    fill: transparent;
  }

  100% {
    fill: rgb(128, 128, 128);
  }
}

@keyframes animate-svg-fill-2 {
  0% {
    fill: transparent;
  }

  100% {
    fill: rgb(128, 128, 128);
  }
}

.svg-elem-2 {
  -webkit-animation: animate-svg-stroke-2 1s cubic-bezier(0.47, 0, 0.745, 0.715) 1.12s both,
                       animate-svg-fill-2 0.7s cubic-bezier(0.47, 0, 0.745, 0.715) 2.3000000000000003s both;
          animation: animate-svg-stroke-2 1s cubic-bezier(0.47, 0, 0.745, 0.715) 1.12s both,
               animate-svg-fill-2 0.7s cubic-bezier(0.47, 0, 0.745, 0.715) 2.3000000000000003s both;
}

@-webkit-keyframes animate-svg-stroke-3 {
  0% {
    stroke-dashoffset: 69.0654067993164px;
    stroke-dasharray: 69.0654067993164px;
  }

  100% {
    stroke-dashoffset: 0;
  }
}

@keyframes animate-svg-stroke-3 {
  0% {
    stroke-dashoffset: 69.0654067993164px;
    stroke-dasharray: 69.0654067993164px;
  }

  100% {
    stroke-dashoffset: 0;
  }
}

@-webkit-keyframes animate-svg-fill-3 {
  0% {
    fill: transparent;
  }

  100% {
    fill: rgb(128, 128, 128);
  }
}

@keyframes animate-svg-fill-3 {
  0% {
    fill: transparent;
  }

  100% {
    fill: rgb(128, 128, 128);
  }
}

.svg-elem-3 {
  -webkit-animation: animate-svg-stroke-3 1s cubic-bezier(0.47, 0, 0.745, 0.715) 1.24s both,
                       animate-svg-fill-3 0.7s cubic-bezier(0.47, 0, 0.745, 0.715) 2.4000000000000004s both;
          animation: animate-svg-stroke-3 1s cubic-bezier(0.47, 0, 0.745, 0.715) 1.24s both,
               animate-svg-fill-3 0.7s cubic-bezier(0.47, 0, 0.745, 0.715) 2.4000000000000004s both;
}

@-webkit-keyframes animate-svg-stroke-4 {
  0% {
    stroke-dashoffset: 233.23989868164062px;
    stroke-dasharray: 233.23989868164062px;
  }

  100% {
    stroke-dashoffset: 0;
  }
}

@keyframes animate-svg-stroke-4 {
  0% {
    stroke-dashoffset: 233.23989868164062px;
    stroke-dasharray: 233.23989868164062px;
  }

  100% {
    stroke-dashoffset: 0;
  }
}

@-webkit-keyframes animate-svg-fill-4 {
  0% {
    fill: transparent;
  }

  100% {
    fill: rgb(128, 128, 128);
  }
}

@keyframes animate-svg-fill-4 {
  0% {
    fill: transparent;
  }

  100% {
    fill: rgb(128, 128, 128);
  }
}

.svg-elem-4 {
  -webkit-animation: animate-svg-stroke-4 1s cubic-bezier(0.47, 0, 0.745, 0.715) 1.3599999999999999s both,
                       animate-svg-fill-4 0.7s cubic-bezier(0.47, 0, 0.745, 0.715) 2.5s both;
          animation: animate-svg-stroke-4 1s cubic-bezier(0.47, 0, 0.745, 0.715) 1.3599999999999999s both,
               animate-svg-fill-4 0.7s cubic-bezier(0.47, 0, 0.745, 0.715) 2.5s both;
}

@-webkit-keyframes animate-svg-stroke-5 {
  0% {
    stroke-dashoffset: 66.99137878417969px;
    stroke-dasharray: 66.99137878417969px;
  }

  100% {
    stroke-dashoffset: 0;
  }
}

@keyframes animate-svg-stroke-5 {
  0% {
    stroke-dashoffset: 66.99137878417969px;
    stroke-dasharray: 66.99137878417969px;
  }

  100% {
    stroke-dashoffset: 0;
  }
}

@-webkit-keyframes animate-svg-fill-5 {
  0% {
    fill: transparent;
  }

  100% {
    fill: rgb(128, 128, 128);
  }
}

@keyframes animate-svg-fill-5 {
  0% {
    fill: transparent;
  }

  100% {
    fill: rgb(128, 128, 128);
  }
}

.svg-elem-5 {
  -webkit-animation: animate-svg-stroke-5 1s cubic-bezier(0.47, 0, 0.745, 0.715) 1.48s both,
                       animate-svg-fill-5 0.7s cubic-bezier(0.47, 0, 0.745, 0.715) 2.6s both;
          animation: animate-svg-stroke-5 1s cubic-bezier(0.47, 0, 0.745, 0.715) 1.48s both,
               animate-svg-fill-5 0.7s cubic-bezier(0.47, 0, 0.745, 0.715) 2.6s both;
}

@-webkit-keyframes animate-svg-stroke-6 {
  0% {
    stroke-dashoffset: 74.24482727050781px;
    stroke-dasharray: 74.24482727050781px;
  }

  100% {
    stroke-dashoffset: 0;
  }
}

@keyframes animate-svg-stroke-6 {
  0% {
    stroke-dashoffset: 74.24482727050781px;
    stroke-dasharray: 74.24482727050781px;
  }

  100% {
    stroke-dashoffset: 0;
  }
}

@-webkit-keyframes animate-svg-fill-6 {
  0% {
    fill: transparent;
  }

  100% {
    fill: rgb(128, 128, 128);
  }
}

@keyframes animate-svg-fill-6 {
  0% {
    fill: transparent;
  }

  100% {
    fill: rgb(128, 128, 128);
  }
}

.svg-elem-6 {
  -webkit-animation: animate-svg-stroke-6 1s cubic-bezier(0.47, 0, 0.745, 0.715) 1.6s both,
                       animate-svg-fill-6 0.7s cubic-bezier(0.47, 0, 0.745, 0.715) 2.7s both;
          animation: animate-svg-stroke-6 1s cubic-bezier(0.47, 0, 0.745, 0.715) 1.6s both,
               animate-svg-fill-6 0.7s cubic-bezier(0.47, 0, 0.745, 0.715) 2.7s both;
}

@-webkit-keyframes animate-svg-stroke-7 {
  0% {
    stroke-dashoffset: 74.89517211914062px;
    stroke-dasharray: 74.89517211914062px;
  }

  100% {
    stroke-dashoffset: 0;
  }
}

@keyframes animate-svg-stroke-7 {
  0% {
    stroke-dashoffset: 74.89517211914062px;
    stroke-dasharray: 74.89517211914062px;
  }

  100% {
    stroke-dashoffset: 0;
  }
}

@-webkit-keyframes animate-svg-fill-7 {
  0% {
    fill: transparent;
  }

  100% {
    fill: rgb(128, 128, 128);
  }
}

@keyframes animate-svg-fill-7 {
  0% {
    fill: transparent;
  }

  100% {
    fill: rgb(128, 128, 128);
  }
}

.svg-elem-7 {
  -webkit-animation: animate-svg-stroke-7 1s cubic-bezier(0.47, 0, 0.745, 0.715) 1.72s both,
                       animate-svg-fill-7 0.7s cubic-bezier(0.47, 0, 0.745, 0.715) 2.8000000000000003s both;
          animation: animate-svg-stroke-7 1s cubic-bezier(0.47, 0, 0.745, 0.715) 1.72s both,
               animate-svg-fill-7 0.7s cubic-bezier(0.47, 0, 0.745, 0.715) 2.8000000000000003s both;
}

@-webkit-keyframes animate-svg-stroke-8 {
  0% {
    stroke-dashoffset: 1257.487060546875px;
    stroke-dasharray: 1257.487060546875px;
  }

  100% {
    stroke-dashoffset: 0;
  }
}

@keyframes animate-svg-stroke-8 {
  0% {
    stroke-dashoffset: 1257.487060546875px;
    stroke-dasharray: 1257.487060546875px;
  }

  100% {
    stroke-dashoffset: 0;
  }
}

@-webkit-keyframes animate-svg-fill-8 {
  0% {
    fill: transparent;
  }

  100% {
    fill: rgb(128, 128, 128);
  }
}

@keyframes animate-svg-fill-8 {
  0% {
    fill: transparent;
  }

  100% {
    fill: rgb(128, 128, 128);
  }
}

.svg-elem-8 {
  -webkit-animation: animate-svg-stroke-8 1s cubic-bezier(0.47, 0, 0.745, 0.715) 1.8399999999999999s both,
                       animate-svg-fill-8 0.7s cubic-bezier(0.47, 0, 0.745, 0.715) 2.9000000000000004s both;
          animation: animate-svg-stroke-8 1s cubic-bezier(0.47, 0, 0.745, 0.715) 1.8399999999999999s both,
               animate-svg-fill-8 0.7s cubic-bezier(0.47, 0, 0.745, 0.715) 2.9000000000000004s both;
}

@-webkit-keyframes animate-svg-stroke-9 {
  0% {
    stroke-dashoffset: 2738.231201171875px;
    stroke-dasharray: 2738.231201171875px;
  }

  100% {
    stroke-dashoffset: 0;
  }
}

@keyframes animate-svg-stroke-9 {
  0% {
    stroke-dashoffset: 2738.231201171875px;
    stroke-dasharray: 2738.231201171875px;
  }

  100% {
    stroke-dashoffset: 0;
  }
}

@-webkit-keyframes animate-svg-fill-9 {
  0% {
    fill: transparent;
  }

  100% {
    fill: rgb(128, 128, 128);
  }
}

@keyframes animate-svg-fill-9 {
  0% {
    fill: transparent;
  }

  100% {
    fill: rgb(128, 128, 128);
  }
}

.svg-elem-9 {
  -webkit-animation: animate-svg-stroke-9 1s cubic-bezier(0.47, 0, 0.745, 0.715) 1.96s both,
                       animate-svg-fill-9 0.7s cubic-bezier(0.47, 0, 0.745, 0.715) 3s both;
          animation: animate-svg-stroke-9 1s cubic-bezier(0.47, 0, 0.745, 0.715) 1.96s both,
               animate-svg-fill-9 0.7s cubic-bezier(0.47, 0, 0.745, 0.715) 3s both;
}

@-webkit-keyframes animate-svg-stroke-10 {
  0% {
    stroke-dashoffset: 347.1195068359375px;
    stroke-dasharray: 347.1195068359375px;
  }

  100% {
    stroke-dashoffset: 0;
  }
}

@keyframes animate-svg-stroke-10 {
  0% {
    stroke-dashoffset: 347.1195068359375px;
    stroke-dasharray: 347.1195068359375px;
  }

  100% {
    stroke-dashoffset: 0;
  }
}

@-webkit-keyframes animate-svg-fill-10 {
  0% {
    fill: transparent;
  }

  100% {
    fill: rgb(128, 128, 128);
  }
}

@keyframes animate-svg-fill-10 {
  0% {
    fill: transparent;
  }

  100% {
    fill: rgb(128, 128, 128);
  }
}

.svg-elem-10 {
  -webkit-animation: animate-svg-stroke-10 1s cubic-bezier(0.47, 0, 0.745, 0.715) 2.08s both,
                       animate-svg-fill-10 0.7s cubic-bezier(0.47, 0, 0.745, 0.715) 3.1s both;
          animation: animate-svg-stroke-10 1s cubic-bezier(0.47, 0, 0.745, 0.715) 2.08s both,
               animate-svg-fill-10 0.7s cubic-bezier(0.47, 0, 0.745, 0.715) 3.1s both;
}

@-webkit-keyframes animate-svg-stroke-11 {
  0% {
    stroke-dashoffset: 357.41156005859375px;
    stroke-dasharray: 357.41156005859375px;
  }

  100% {
    stroke-dashoffset: 0;
  }
}

@keyframes animate-svg-stroke-11 {
  0% {
    stroke-dashoffset: 357.41156005859375px;
    stroke-dasharray: 357.41156005859375px;
  }

  100% {
    stroke-dashoffset: 0;
  }
}

@-webkit-keyframes animate-svg-fill-11 {
  0% {
    fill: transparent;
  }

  100% {
    fill: rgb(128, 128, 128);
  }
}

@keyframes animate-svg-fill-11 {
  0% {
    fill: transparent;
  }

  100% {
    fill: rgb(128, 128, 128);
  }
}

.svg-elem-11 {
  -webkit-animation: animate-svg-stroke-11 1s cubic-bezier(0.47, 0, 0.745, 0.715) 2.2s both,
                       animate-svg-fill-11 0.7s cubic-bezier(0.47, 0, 0.745, 0.715) 3.2s both;
          animation: animate-svg-stroke-11 1s cubic-bezier(0.47, 0, 0.745, 0.715) 2.2s both,
               animate-svg-fill-11 0.7s cubic-bezier(0.47, 0, 0.745, 0.715) 3.2s both;
}

@-webkit-keyframes animate-svg-stroke-12 {
  0% {
    stroke-dashoffset: 82.35272216796875px;
    stroke-dasharray: 82.35272216796875px;
  }

  100% {
    stroke-dashoffset: 0;
  }
}

@keyframes animate-svg-stroke-12 {
  0% {
    stroke-dashoffset: 82.35272216796875px;
    stroke-dasharray: 82.35272216796875px;
  }

  100% {
    stroke-dashoffset: 0;
  }
}

@-webkit-keyframes animate-svg-fill-12 {
  0% {
    fill: transparent;
  }

  100% {
    fill: rgb(128, 128, 128);
  }
}

@keyframes animate-svg-fill-12 {
  0% {
    fill: transparent;
  }

  100% {
    fill: rgb(128, 128, 128);
  }
}

.svg-elem-12 {
  -webkit-animation: animate-svg-stroke-12 1s cubic-bezier(0.47, 0, 0.745, 0.715) 2.32s both,
                       animate-svg-fill-12 0.7s cubic-bezier(0.47, 0, 0.745, 0.715) 3.3000000000000003s both;
          animation: animate-svg-stroke-12 1s cubic-bezier(0.47, 0, 0.745, 0.715) 2.32s both,
               animate-svg-fill-12 0.7s cubic-bezier(0.47, 0, 0.745, 0.715) 3.3000000000000003s both;
}

@-webkit-keyframes animate-svg-stroke-13 {
  0% {
    stroke-dashoffset: 112.3587417602539px;
    stroke-dasharray: 112.3587417602539px;
  }

  100% {
    stroke-dashoffset: 0;
  }
}

@keyframes animate-svg-stroke-13 {
  0% {
    stroke-dashoffset: 112.3587417602539px;
    stroke-dasharray: 112.3587417602539px;
  }

  100% {
    stroke-dashoffset: 0;
  }
}

@-webkit-keyframes animate-svg-fill-13 {
  0% {
    fill: transparent;
  }

  100% {
    fill: rgb(128, 128, 128);
  }
}

@keyframes animate-svg-fill-13 {
  0% {
    fill: transparent;
  }

  100% {
    fill: rgb(128, 128, 128);
  }
}

.svg-elem-13 {
  -webkit-animation: animate-svg-stroke-13 1s cubic-bezier(0.47, 0, 0.745, 0.715) 2.44s both,
                       animate-svg-fill-13 0.7s cubic-bezier(0.47, 0, 0.745, 0.715) 3.4000000000000004s both;
          animation: animate-svg-stroke-13 1s cubic-bezier(0.47, 0, 0.745, 0.715) 2.44s both,
               animate-svg-fill-13 0.7s cubic-bezier(0.47, 0, 0.745, 0.715) 3.4000000000000004s both;
}

@-webkit-keyframes animate-svg-stroke-14 {
  0% {
    stroke-dashoffset: 971.0460205078125px;
    stroke-dasharray: 971.0460205078125px;
  }

  100% {
    stroke-dashoffset: 0;
  }
}

@keyframes animate-svg-stroke-14 {
  0% {
    stroke-dashoffset: 971.0460205078125px;
    stroke-dasharray: 971.0460205078125px;
  }

  100% {
    stroke-dashoffset: 0;
  }
}

@-webkit-keyframes animate-svg-fill-14 {
  0% {
    fill: transparent;
  }

  100% {
    fill: rgb(128, 128, 128);
  }
}

@keyframes animate-svg-fill-14 {
  0% {
    fill: transparent;
  }

  100% {
    fill: rgb(128, 128, 128);
  }
}

.svg-elem-14 {
  -webkit-animation: animate-svg-stroke-14 1s cubic-bezier(0.47, 0, 0.745, 0.715) 2.56s both,
                       animate-svg-fill-14 0.7s cubic-bezier(0.47, 0, 0.745, 0.715) 3.5s both;
          animation: animate-svg-stroke-14 1s cubic-bezier(0.47, 0, 0.745, 0.715) 2.56s both,
               animate-svg-fill-14 0.7s cubic-bezier(0.47, 0, 0.745, 0.715) 3.5s both;
}

@-webkit-keyframes animate-svg-stroke-15 {
  0% {
    stroke-dashoffset: 152.19461059570312px;
    stroke-dasharray: 152.19461059570312px;
  }

  100% {
    stroke-dashoffset: 0;
  }
}

@keyframes animate-svg-stroke-15 {
  0% {
    stroke-dashoffset: 152.19461059570312px;
    stroke-dasharray: 152.19461059570312px;
  }

  100% {
    stroke-dashoffset: 0;
  }
}

@-webkit-keyframes animate-svg-fill-15 {
  0% {
    fill: transparent;
  }

  100% {
    fill: rgb(128, 128, 128);
  }
}

@keyframes animate-svg-fill-15 {
  0% {
    fill: transparent;
  }

  100% {
    fill: rgb(128, 128, 128);
  }
}

.svg-elem-15 {
  -webkit-animation: animate-svg-stroke-15 1s cubic-bezier(0.47, 0, 0.745, 0.715) 2.6799999999999997s both,
                       animate-svg-fill-15 0.7s cubic-bezier(0.47, 0, 0.745, 0.715) 3.6000000000000005s both;
          animation: animate-svg-stroke-15 1s cubic-bezier(0.47, 0, 0.745, 0.715) 2.6799999999999997s both,
               animate-svg-fill-15 0.7s cubic-bezier(0.47, 0, 0.745, 0.715) 3.6000000000000005s both;
}

@-webkit-keyframes animate-svg-stroke-16 {
  0% {
    stroke-dashoffset: 277.0259704589844px;
    stroke-dasharray: 277.0259704589844px;
  }

  100% {
    stroke-dashoffset: 0;
  }
}

@keyframes animate-svg-stroke-16 {
  0% {
    stroke-dashoffset: 277.0259704589844px;
    stroke-dasharray: 277.0259704589844px;
  }

  100% {
    stroke-dashoffset: 0;
  }
}

@-webkit-keyframes animate-svg-fill-16 {
  0% {
    fill: transparent;
  }

  100% {
    fill: rgb(128, 128, 128);
  }
}

@keyframes animate-svg-fill-16 {
  0% {
    fill: transparent;
  }

  100% {
    fill: rgb(128, 128, 128);
  }
}

.svg-elem-16 {
  -webkit-animation: animate-svg-stroke-16 1s cubic-bezier(0.47, 0, 0.745, 0.715) 2.8s both,
                       animate-svg-fill-16 0.7s cubic-bezier(0.47, 0, 0.745, 0.715) 3.7s both;
          animation: animate-svg-stroke-16 1s cubic-bezier(0.47, 0, 0.745, 0.715) 2.8s both,
               animate-svg-fill-16 0.7s cubic-bezier(0.47, 0, 0.745, 0.715) 3.7s both;
}

@-webkit-keyframes animate-svg-stroke-17 {
  0% {
    stroke-dashoffset: 198.43197631835938px;
    stroke-dasharray: 198.43197631835938px;
  }

  100% {
    stroke-dashoffset: 0;
  }
}

@keyframes animate-svg-stroke-17 {
  0% {
    stroke-dashoffset: 198.43197631835938px;
    stroke-dasharray: 198.43197631835938px;
  }

  100% {
    stroke-dashoffset: 0;
  }
}

@-webkit-keyframes animate-svg-fill-17 {
  0% {
    fill: transparent;
  }

  100% {
    fill: rgb(128, 128, 128);
  }
}

@keyframes animate-svg-fill-17 {
  0% {
    fill: transparent;
  }

  100% {
    fill: rgb(128, 128, 128);
  }
}

.svg-elem-17 {
  -webkit-animation: animate-svg-stroke-17 1s cubic-bezier(0.47, 0, 0.745, 0.715) 2.92s both,
                       animate-svg-fill-17 0.7s cubic-bezier(0.47, 0, 0.745, 0.715) 3.8000000000000003s both;
          animation: animate-svg-stroke-17 1s cubic-bezier(0.47, 0, 0.745, 0.715) 2.92s both,
               animate-svg-fill-17 0.7s cubic-bezier(0.47, 0, 0.745, 0.715) 3.8000000000000003s both;
}

@-webkit-keyframes animate-svg-stroke-18 {
  0% {
    stroke-dashoffset: 68.72468566894531px;
    stroke-dasharray: 68.72468566894531px;
  }

  100% {
    stroke-dashoffset: 0;
  }
}

@keyframes animate-svg-stroke-18 {
  0% {
    stroke-dashoffset: 68.72468566894531px;
    stroke-dasharray: 68.72468566894531px;
  }

  100% {
    stroke-dashoffset: 0;
  }
}

@-webkit-keyframes animate-svg-fill-18 {
  0% {
    fill: transparent;
  }

  100% {
    fill: rgb(128, 128, 128);
  }
}

@keyframes animate-svg-fill-18 {
  0% {
    fill: transparent;
  }

  100% {
    fill: rgb(128, 128, 128);
  }
}

.svg-elem-18 {
  -webkit-animation: animate-svg-stroke-18 1s cubic-bezier(0.47, 0, 0.745, 0.715) 3.04s both,
                       animate-svg-fill-18 0.7s cubic-bezier(0.47, 0, 0.745, 0.715) 3.9000000000000004s both;
          animation: animate-svg-stroke-18 1s cubic-bezier(0.47, 0, 0.745, 0.715) 3.04s both,
               animate-svg-fill-18 0.7s cubic-bezier(0.47, 0, 0.745, 0.715) 3.9000000000000004s both;
}

@-webkit-keyframes animate-svg-stroke-19 {
  0% {
    stroke-dashoffset: 332.1943359375px;
    stroke-dasharray: 332.1943359375px;
  }

  100% {
    stroke-dashoffset: 0;
  }
}

@keyframes animate-svg-stroke-19 {
  0% {
    stroke-dashoffset: 332.1943359375px;
    stroke-dasharray: 332.1943359375px;
  }

  100% {
    stroke-dashoffset: 0;
  }
}

@-webkit-keyframes animate-svg-fill-19 {
  0% {
    fill: transparent;
  }

  100% {
    fill: rgb(128, 128, 128);
  }
}

@keyframes animate-svg-fill-19 {
  0% {
    fill: transparent;
  }

  100% {
    fill: rgb(128, 128, 128);
  }
}

.svg-elem-19 {
  -webkit-animation: animate-svg-stroke-19 1s cubic-bezier(0.47, 0, 0.745, 0.715) 3.16s both,
                       animate-svg-fill-19 0.7s cubic-bezier(0.47, 0, 0.745, 0.715) 4s both;
          animation: animate-svg-stroke-19 1s cubic-bezier(0.47, 0, 0.745, 0.715) 3.16s both,
               animate-svg-fill-19 0.7s cubic-bezier(0.47, 0, 0.745, 0.715) 4s both;
}

@-webkit-keyframes animate-svg-stroke-20 {
  0% {
    stroke-dashoffset: 58.771636962890625px;
    stroke-dasharray: 58.771636962890625px;
  }

  100% {
    stroke-dashoffset: 0;
  }
}

@keyframes animate-svg-stroke-20 {
  0% {
    stroke-dashoffset: 58.771636962890625px;
    stroke-dasharray: 58.771636962890625px;
  }

  100% {
    stroke-dashoffset: 0;
  }
}

@-webkit-keyframes animate-svg-fill-20 {
  0% {
    fill: transparent;
  }

  100% {
    fill: rgb(128, 128, 128);
  }
}

@keyframes animate-svg-fill-20 {
  0% {
    fill: transparent;
  }

  100% {
    fill: rgb(128, 128, 128);
  }
}

.svg-elem-20 {
  -webkit-animation: animate-svg-stroke-20 1s cubic-bezier(0.47, 0, 0.745, 0.715) 3.28s both,
                       animate-svg-fill-20 0.7s cubic-bezier(0.47, 0, 0.745, 0.715) 4.1000000000000005s both;
          animation: animate-svg-stroke-20 1s cubic-bezier(0.47, 0, 0.745, 0.715) 3.28s both,
               animate-svg-fill-20 0.7s cubic-bezier(0.47, 0, 0.745, 0.715) 4.1000000000000005s both;
}

@-webkit-keyframes animate-svg-stroke-21 {
  0% {
    stroke-dashoffset: 127.33502197265625px;
    stroke-dasharray: 127.33502197265625px;
  }

  100% {
    stroke-dashoffset: 0;
  }
}

@keyframes animate-svg-stroke-21 {
  0% {
    stroke-dashoffset: 127.33502197265625px;
    stroke-dasharray: 127.33502197265625px;
  }

  100% {
    stroke-dashoffset: 0;
  }
}

@-webkit-keyframes animate-svg-fill-21 {
  0% {
    fill: transparent;
  }

  100% {
    fill: rgb(128, 128, 128);
  }
}

@keyframes animate-svg-fill-21 {
  0% {
    fill: transparent;
  }

  100% {
    fill: rgb(128, 128, 128);
  }
}

.svg-elem-21 {
  -webkit-animation: animate-svg-stroke-21 1s cubic-bezier(0.47, 0, 0.745, 0.715) 3.4s both,
                       animate-svg-fill-21 0.7s cubic-bezier(0.47, 0, 0.745, 0.715) 4.2s both;
          animation: animate-svg-stroke-21 1s cubic-bezier(0.47, 0, 0.745, 0.715) 3.4s both,
               animate-svg-fill-21 0.7s cubic-bezier(0.47, 0, 0.745, 0.715) 4.2s both;
}

@-webkit-keyframes animate-svg-stroke-22 {
  0% {
    stroke-dashoffset: 122.91372680664062px;
    stroke-dasharray: 122.91372680664062px;
  }

  100% {
    stroke-dashoffset: 0;
  }
}

@keyframes animate-svg-stroke-22 {
  0% {
    stroke-dashoffset: 122.91372680664062px;
    stroke-dasharray: 122.91372680664062px;
  }

  100% {
    stroke-dashoffset: 0;
  }
}

@-webkit-keyframes animate-svg-fill-22 {
  0% {
    fill: transparent;
  }

  100% {
    fill: rgb(128, 128, 128);
  }
}

@keyframes animate-svg-fill-22 {
  0% {
    fill: transparent;
  }

  100% {
    fill: rgb(128, 128, 128);
  }
}

.svg-elem-22 {
  -webkit-animation: animate-svg-stroke-22 1s cubic-bezier(0.47, 0, 0.745, 0.715) 3.52s both,
                       animate-svg-fill-22 0.7s cubic-bezier(0.47, 0, 0.745, 0.715) 4.300000000000001s both;
          animation: animate-svg-stroke-22 1s cubic-bezier(0.47, 0, 0.745, 0.715) 3.52s both,
               animate-svg-fill-22 0.7s cubic-bezier(0.47, 0, 0.745, 0.715) 4.300000000000001s both;
}

@-webkit-keyframes animate-svg-stroke-23 {
  0% {
    stroke-dashoffset: 1565.5771484375px;
    stroke-dasharray: 1565.5771484375px;
  }

  100% {
    stroke-dashoffset: 0;
  }
}

@keyframes animate-svg-stroke-23 {
  0% {
    stroke-dashoffset: 1565.5771484375px;
    stroke-dasharray: 1565.5771484375px;
  }

  100% {
    stroke-dashoffset: 0;
  }
}

@-webkit-keyframes animate-svg-fill-23 {
  0% {
    fill: transparent;
  }

  100% {
    fill: rgb(128, 128, 128);
  }
}

@keyframes animate-svg-fill-23 {
  0% {
    fill: transparent;
  }

  100% {
    fill: rgb(128, 128, 128);
  }
}

.svg-elem-23 {
  -webkit-animation: animate-svg-stroke-23 1s cubic-bezier(0.47, 0, 0.745, 0.715) 3.6399999999999997s both,
                       animate-svg-fill-23 0.7s cubic-bezier(0.47, 0, 0.745, 0.715) 4.4s both;
          animation: animate-svg-stroke-23 1s cubic-bezier(0.47, 0, 0.745, 0.715) 3.6399999999999997s both,
               animate-svg-fill-23 0.7s cubic-bezier(0.47, 0, 0.745, 0.715) 4.4s both;
}

@-webkit-keyframes animate-svg-stroke-24 {
  0% {
    stroke-dashoffset: 58.771644592285156px;
    stroke-dasharray: 58.771644592285156px;
  }

  100% {
    stroke-dashoffset: 0;
  }
}

@keyframes animate-svg-stroke-24 {
  0% {
    stroke-dashoffset: 58.771644592285156px;
    stroke-dasharray: 58.771644592285156px;
  }

  100% {
    stroke-dashoffset: 0;
  }
}

@-webkit-keyframes animate-svg-fill-24 {
  0% {
    fill: transparent;
  }

  100% {
    fill: rgb(128, 128, 128);
  }
}

@keyframes animate-svg-fill-24 {
  0% {
    fill: transparent;
  }

  100% {
    fill: rgb(128, 128, 128);
  }
}

.svg-elem-24 {
  -webkit-animation: animate-svg-stroke-24 1s cubic-bezier(0.47, 0, 0.745, 0.715) 3.76s both,
                       animate-svg-fill-24 0.7s cubic-bezier(0.47, 0, 0.745, 0.715) 4.5s both;
          animation: animate-svg-stroke-24 1s cubic-bezier(0.47, 0, 0.745, 0.715) 3.76s both,
               animate-svg-fill-24 0.7s cubic-bezier(0.47, 0, 0.745, 0.715) 4.5s both;
}

@-webkit-keyframes animate-svg-stroke-25 {
  0% {
    stroke-dashoffset: 213.5201873779297px;
    stroke-dasharray: 213.5201873779297px;
  }

  100% {
    stroke-dashoffset: 0;
  }
}

@keyframes animate-svg-stroke-25 {
  0% {
    stroke-dashoffset: 213.5201873779297px;
    stroke-dasharray: 213.5201873779297px;
  }

  100% {
    stroke-dashoffset: 0;
  }
}

@-webkit-keyframes animate-svg-fill-25 {
  0% {
    fill: transparent;
  }

  100% {
    fill: rgb(128, 128, 128);
  }
}

@keyframes animate-svg-fill-25 {
  0% {
    fill: transparent;
  }

  100% {
    fill: rgb(128, 128, 128);
  }
}

.svg-elem-25 {
  -webkit-animation: animate-svg-stroke-25 1s cubic-bezier(0.47, 0, 0.745, 0.715) 3.88s both,
                       animate-svg-fill-25 0.7s cubic-bezier(0.47, 0, 0.745, 0.715) 4.6000000000000005s both;
          animation: animate-svg-stroke-25 1s cubic-bezier(0.47, 0, 0.745, 0.715) 3.88s both,
               animate-svg-fill-25 0.7s cubic-bezier(0.47, 0, 0.745, 0.715) 4.6000000000000005s both;
}

@-webkit-keyframes animate-svg-stroke-26 {
  0% {
    stroke-dashoffset: 94.39302062988281px;
    stroke-dasharray: 94.39302062988281px;
  }

  100% {
    stroke-dashoffset: 0;
  }
}

@keyframes animate-svg-stroke-26 {
  0% {
    stroke-dashoffset: 94.39302062988281px;
    stroke-dasharray: 94.39302062988281px;
  }

  100% {
    stroke-dashoffset: 0;
  }
}

@-webkit-keyframes animate-svg-fill-26 {
  0% {
    fill: transparent;
  }

  100% {
    fill: rgb(128, 128, 128);
  }
}

@keyframes animate-svg-fill-26 {
  0% {
    fill: transparent;
  }

  100% {
    fill: rgb(128, 128, 128);
  }
}

.svg-elem-26 {
  -webkit-animation: animate-svg-stroke-26 1s cubic-bezier(0.47, 0, 0.745, 0.715) 4s both,
                       animate-svg-fill-26 0.7s cubic-bezier(0.47, 0, 0.745, 0.715) 4.7s both;
          animation: animate-svg-stroke-26 1s cubic-bezier(0.47, 0, 0.745, 0.715) 4s both,
               animate-svg-fill-26 0.7s cubic-bezier(0.47, 0, 0.745, 0.715) 4.7s both;
}

@-webkit-keyframes animate-svg-stroke-27 {
  0% {
    stroke-dashoffset: 56.85713195800781px;
    stroke-dasharray: 56.85713195800781px;
  }

  100% {
    stroke-dashoffset: 0;
  }
}

@keyframes animate-svg-stroke-27 {
  0% {
    stroke-dashoffset: 56.85713195800781px;
    stroke-dasharray: 56.85713195800781px;
  }

  100% {
    stroke-dashoffset: 0;
  }
}

@-webkit-keyframes animate-svg-fill-27 {
  0% {
    fill: transparent;
  }

  100% {
    fill: rgb(128, 128, 128);
  }
}

@keyframes animate-svg-fill-27 {
  0% {
    fill: transparent;
  }

  100% {
    fill: rgb(128, 128, 128);
  }
}

.svg-elem-27 {
  -webkit-animation: animate-svg-stroke-27 1s cubic-bezier(0.47, 0, 0.745, 0.715) 4.12s both,
                       animate-svg-fill-27 0.7s cubic-bezier(0.47, 0, 0.745, 0.715) 4.800000000000001s both;
          animation: animate-svg-stroke-27 1s cubic-bezier(0.47, 0, 0.745, 0.715) 4.12s both,
               animate-svg-fill-27 0.7s cubic-bezier(0.47, 0, 0.745, 0.715) 4.800000000000001s both;
}

@-webkit-keyframes animate-svg-stroke-28 {
  0% {
    stroke-dashoffset: 101.37356567382812px;
    stroke-dasharray: 101.37356567382812px;
  }

  100% {
    stroke-dashoffset: 0;
  }
}

@keyframes animate-svg-stroke-28 {
  0% {
    stroke-dashoffset: 101.37356567382812px;
    stroke-dasharray: 101.37356567382812px;
  }

  100% {
    stroke-dashoffset: 0;
  }
}

@-webkit-keyframes animate-svg-fill-28 {
  0% {
    fill: transparent;
  }

  100% {
    fill: rgb(128, 128, 128);
  }
}

@keyframes animate-svg-fill-28 {
  0% {
    fill: transparent;
  }

  100% {
    fill: rgb(128, 128, 128);
  }
}

.svg-elem-28 {
  -webkit-animation: animate-svg-stroke-28 1s cubic-bezier(0.47, 0, 0.745, 0.715) 4.24s both,
                       animate-svg-fill-28 0.7s cubic-bezier(0.47, 0, 0.745, 0.715) 4.9s both;
          animation: animate-svg-stroke-28 1s cubic-bezier(0.47, 0, 0.745, 0.715) 4.24s both,
               animate-svg-fill-28 0.7s cubic-bezier(0.47, 0, 0.745, 0.715) 4.9s both;
}

@-webkit-keyframes animate-svg-stroke-29 {
  0% {
    stroke-dashoffset: 69.06526947021484px;
    stroke-dasharray: 69.06526947021484px;
  }

  100% {
    stroke-dashoffset: 0;
  }
}

@keyframes animate-svg-stroke-29 {
  0% {
    stroke-dashoffset: 69.06526947021484px;
    stroke-dasharray: 69.06526947021484px;
  }

  100% {
    stroke-dashoffset: 0;
  }
}

@-webkit-keyframes animate-svg-fill-29 {
  0% {
    fill: transparent;
  }

  100% {
    fill: rgb(128, 128, 128);
  }
}

@keyframes animate-svg-fill-29 {
  0% {
    fill: transparent;
  }

  100% {
    fill: rgb(128, 128, 128);
  }
}

.svg-elem-29 {
  -webkit-animation: animate-svg-stroke-29 1s cubic-bezier(0.47, 0, 0.745, 0.715) 4.359999999999999s both,
                       animate-svg-fill-29 0.7s cubic-bezier(0.47, 0, 0.745, 0.715) 5s both;
          animation: animate-svg-stroke-29 1s cubic-bezier(0.47, 0, 0.745, 0.715) 4.359999999999999s both,
               animate-svg-fill-29 0.7s cubic-bezier(0.47, 0, 0.745, 0.715) 5s both;
}

@-webkit-keyframes animate-svg-stroke-30 {
  0% {
    stroke-dashoffset: 161.88726806640625px;
    stroke-dasharray: 161.88726806640625px;
  }

  100% {
    stroke-dashoffset: 0;
  }
}

@keyframes animate-svg-stroke-30 {
  0% {
    stroke-dashoffset: 161.88726806640625px;
    stroke-dasharray: 161.88726806640625px;
  }

  100% {
    stroke-dashoffset: 0;
  }
}

@-webkit-keyframes animate-svg-fill-30 {
  0% {
    fill: transparent;
  }

  100% {
    fill: rgb(128, 128, 128);
  }
}

@keyframes animate-svg-fill-30 {
  0% {
    fill: transparent;
  }

  100% {
    fill: rgb(128, 128, 128);
  }
}

.svg-elem-30 {
  -webkit-animation: animate-svg-stroke-30 1s cubic-bezier(0.47, 0, 0.745, 0.715) 4.48s both,
                       animate-svg-fill-30 0.7s cubic-bezier(0.47, 0, 0.745, 0.715) 5.1000000000000005s both;
          animation: animate-svg-stroke-30 1s cubic-bezier(0.47, 0, 0.745, 0.715) 4.48s both,
               animate-svg-fill-30 0.7s cubic-bezier(0.47, 0, 0.745, 0.715) 5.1000000000000005s both;
}
</style>
<g transform="translate(0.000000,180.000000) scale(0.100000,-0.100000)" fill="grey" stroke="none">
<path stroke="navy" stroke-width="3" d="M835 1646 c-131 -32 -269 -136 -321 -242 -24 -49 -26 -66 -30 -204
-3 -95 0 -150 6 -150 6 0 10 5 10 12 0 19 13 0 27 -40 7 -20 13 -53 13 -73 0
-20 6 -52 14 -70 8 -19 12 -45 10 -59 -3 -14 1 -34 9 -44 12 -16 13 -12 5 35
-5 30 -11 118 -15 197 -3 78 -9 142 -13 142 -4 0 -10 9 -13 19 -3 13 1 21 15
24 15 4 18 1 13 -13 -3 -10 -1 -21 5 -25 10 -6 18 7 24 37 2 7 7 22 11 32 5
10 4 44 -1 75 -12 73 -7 102 18 109 12 3 16 7 8 12 -8 5 -6 11 5 20 12 10 15
10 15 -4 0 -20 19 -21 26 -1 3 8 21 24 40 36 30 18 37 19 69 8 27 -10 38 -10
47 -1 7 7 24 12 39 12 15 0 29 4 31 10 5 14 52 17 54 3 1 -7 2 -18 3 -24 0 -6
9 -8 20 -4 10 3 31 0 47 -6 16 -6 47 -13 68 -15 42 -4 71 -23 49 -31 -20 -7
-15 -23 7 -23 11 0 20 -3 20 -7 0 -5 13 -22 28 -39 91 -103 90 -102 86 -152
-2 -26 -1 -39 2 -29 8 25 25 21 20 -5 -8 -42 -18 -68 -28 -68 -12 0 1 -42 15
-52 26 -16 30 6 10 60 -3 6 2 12 11 12 14 0 16 -16 16 -109 0 -72 4 -112 12
-117 8 -5 9 0 5 16 -8 33 15 197 25 174 4 -11 5 46 2 126 -7 163 -14 183 -86
268 -82 96 -159 143 -273 168 -73 16 -114 16 -180 0z m445 -246 c0 -5 -5 -10
-11 -10 -5 0 -7 5 -4 10 3 6 8 10 11 10 2 0 4 -4 4 -10z" class="svg-elem-1"></path>
<path stroke="navy" stroke-width="3" d="M910 1490 c0 -5 5 -10 11 -10 5 0 7 5 4 10 -3 6 -8 10 -11 10 -2 0
-4 -4 -4 -10z" class="svg-elem-2"></path>
<path stroke="navy" stroke-width="3" d="M745 1460 c3 -5 11 -10 16 -10 6 0 7 5 4 10 -3 6 -11 10 -16 10 -6 0
-7 -4 -4 -10z" class="svg-elem-3"></path>
<path stroke="navy" stroke-width="3" d="M710 1432 c0 -6 5 -14 11 -18 8 -4 8 -9 0 -17 -6 -6 -11 -18 -11 -26
1 -13 2 -13 11 2 5 9 19 17 29 17 11 0 20 5 20 10 0 6 -5 10 -12 10 -6 0 -20
7 -30 17 -10 9 -18 11 -18 5z" class="svg-elem-4"></path>
<path stroke="navy" stroke-width="3" d="M668 1403 c6 -2 18 -2 25 0 6 3 1 5 -13 5 -14 0 -19 -2 -12 -5z" class="svg-elem-5"></path>
<path stroke="navy" stroke-width="3" d="M630 1376 c0 -9 5 -16 10 -16 6 0 10 4 10 9 0 6 -4 13 -10 16 -5 3
-10 -1 -10 -9z" class="svg-elem-6"></path>
<path stroke="navy" stroke-width="3" d="M636 1321 c-4 -7 -5 -15 -2 -18 9 -9 19 4 14 18 -4 11 -6 11 -12 0z" class="svg-elem-7"></path>
<path stroke="navy" stroke-width="3" d="M783 1123 c-15 -8 -40 -26 -55 -40 -16 -15 -33 -23 -42 -20 -10 4
-16 1 -16 -7 0 -18 60 -13 92 8 30 19 113 27 144 12 29 -14 31 -47 5 -98 -12
-24 -15 -38 -8 -41 7 -2 5 -16 -6 -39 -18 -37 -22 -70 -10 -81 11 -11 33 14
33 38 0 12 7 28 15 35 12 10 15 10 15 -2 0 -8 -6 -20 -12 -27 -11 -10 -9 -11
5 -5 16 6 18 18 16 103 l-2 96 -44 40 c-48 44 -84 52 -130 28z" class="svg-elem-8"></path>
<path stroke="navy" stroke-width="3" d="M1064 1101 c-41 -37 -42 -40 -43 -106 0 -45 4 -77 14 -91 11 -17 12
-24 2 -27 -9 -4 -9 -7 1 -18 26 -27 1 -89 -36 -89 -7 0 -12 -5 -12 -11 0 -7
11 -8 30 -4 22 5 30 3 28 -6 -2 -7 6 -15 17 -17 11 -2 24 -10 28 -18 4 -8 15
-14 23 -14 9 0 14 -5 12 -12 -4 -11 -47 -17 -156 -19 -29 -1 -55 -6 -58 -10
-3 -6 39 -9 96 -8 56 0 106 -3 111 -8 24 -24 -52 -53 -142 -53 -78 0 -109 8
-109 26 0 8 -7 14 -15 14 -24 0 -17 -38 10 -56 19 -12 43 -16 93 -14 37 2 88
3 115 3 42 0 48 3 54 25 3 14 12 37 19 51 8 15 10 27 4 29 -13 5 0 32 16 32 7
0 18 -8 23 -17 10 -17 10 -16 10 2 0 22 -29 47 -69 60 -39 12 -52 36 -32 58
15 17 15 22 -1 65 -10 26 -19 56 -20 67 -1 11 -10 34 -19 52 -17 31 -15 63 3
63 5 0 9 7 9 16 0 10 5 14 16 10 9 -4 13 -2 8 5 -7 12 99 8 129 -5 32 -15 18
11 -21 38 -54 37 -88 34 -138 -13z" class="svg-elem-9"></path>
<path stroke="navy" stroke-width="3" d="M795 1051 c-16 -3 -29 -11 -28 -16 8 -38 13 -45 36 -45 17 0 28 7 32
20 7 21 30 27 40 10 3 -5 10 -10 16 -10 5 0 9 5 9 10 0 6 -6 10 -14 10 -8 0
-16 4 -18 9 -5 13 -40 19 -73 12z" class="svg-elem-10"></path>
<path stroke="navy" stroke-width="3" d="M1115 1039 c9 -29 5 -25 32 -33 16 -5 26 -2 35 13 16 27 28 27 28 0
0 -20 21 -23 27 -3 7 23 -18 37 -72 42 -56 5 -57 4 -50 -19z" class="svg-elem-11"></path>
<path stroke="navy" stroke-width="3" d="M1070 1030 c-8 -5 -11 -12 -7 -16 4 -4 13 -2 19 4 15 15 7 24 -12 12z" class="svg-elem-12"></path>
<path stroke="navy" stroke-width="3" d="M727 1023 c-13 -12 -7 -33 8 -33 8 0 15 9 15 20 0 20 -11 26 -23 13z" class="svg-elem-13"></path>
<path stroke="navy" stroke-width="3" d="M1325 855 c-3 -17 -10 -48 -16 -70 -5 -22 -9 -53 -9 -70 2 -58 -10
-141 -25 -178 -8 -20 -15 -46 -15 -57 0 -11 -4 -20 -9 -20 -5 0 -11 -7 -15
-15 -3 -8 0 -15 7 -15 15 0 76 176 84 241 3 24 12 52 21 62 14 15 13 17 -3 17
-11 0 -15 5 -12 14 14 36 18 86 9 103 -9 16 -11 14 -17 -12z" class="svg-elem-14"></path>
<path stroke="navy" stroke-width="3" d="M932 779 c-7 -12 -11 -23 -9 -26 8 -8 57 29 51 38 -9 15 -29 10 -42
-12z" class="svg-elem-15"></path>
<path stroke="navy" stroke-width="3" d="M560 657 l5 -72 3 64 c2 35 -1 68 -5 72 -4 4 -6 -24 -3 -64z" class="svg-elem-16"></path>
<path stroke="navy" stroke-width="3" d="M870 720 c-8 -5 -23 -11 -32 -14 -10 -3 -18 -10 -18 -15 0 -14 54 -8
67 9 23 28 14 38 -17 20z" class="svg-elem-17"></path>
<path stroke="navy" stroke-width="3" d="M980 704 c0 -8 5 -12 10 -9 6 4 8 11 5 16 -9 14 -15 11 -15 -7z" class="svg-elem-18"></path>
<path stroke="navy" stroke-width="3" d="M1247 658 c-27 -88 -31 -112 -18 -104 6 4 11 13 11 20 0 8 6 19 14
25 18 15 31 90 19 102 -6 6 -16 -9 -26 -43z" class="svg-elem-19"></path>
<path stroke="navy" stroke-width="3" d="M880 639 c0 -5 5 -7 10 -4 6 3 10 8 10 11 0 2 -4 4 -10 4 -5 0 -10
-5 -10 -11z" class="svg-elem-20"></path>
<path stroke="navy" stroke-width="3" d="M596 583 c10 -40 14 -41 14 -5 0 18 -5 32 -10 32 -6 0 -8 -11 -4 -27z" class="svg-elem-21"></path>
<path stroke="navy" stroke-width="3" d="M1197 517 c-11 -29 -9 -53 4 -40 6 6 9 21 7 34 -3 21 -4 22 -11 6z" class="svg-elem-22"></path>
<path stroke="navy" stroke-width="3" d="M640 480 c0 -18 30 -70 40 -70 6 0 10 -7 10 -15 0 -9 6 -18 14 -21 8
-3 16 -14 19 -25 3 -10 12 -19 21 -19 9 0 16 -4 16 -9 0 -5 11 -12 25 -15 14
-4 25 -11 25 -16 0 -6 9 -10 19 -10 11 0 22 -4 25 -9 8 -13 66 -22 150 -22 64
0 80 3 115 27 23 14 50 41 61 58 11 18 28 41 40 51 11 10 20 22 20 27 0 16
-26 8 -40 -13 -8 -12 -21 -27 -27 -35 -7 -7 -13 -16 -13 -21 0 -4 -21 -21 -46
-37 -41 -26 -50 -28 -112 -23 -86 7 -132 17 -132 28 0 5 -12 14 -26 19 -22 9
-24 13 -14 25 10 12 7 16 -15 25 -34 13 -33 13 -37 -7 -3 -14 -20 -2 -71 50
-37 37 -67 63 -67 57z" class="svg-elem-23"></path>
<path stroke="navy" stroke-width="3" d="M1000 480 c0 -5 5 -10 11 -10 5 0 7 5 4 10 -3 6 -8 10 -11 10 -2 0
-4 -4 -4 -10z" class="svg-elem-24"></path>
<path stroke="navy" stroke-width="3" d="M769 414 c-11 -13 -9 -14 13 -9 15 4 29 2 32 -4 9 -14 36 -14 36 -1
0 6 -7 10 -15 10 -8 0 -15 5 -15 10 0 16 -36 12 -51 -6z" class="svg-elem-25"></path>

<path stroke="navy" stroke-width="3" d="M877 359 c6 -22 23 -26 23 -5 0 8 -6 16 -14 19 -10 4 -12 0 -9 -14z" class="svg-elem-26"></path>
<path stroke="navy" stroke-width="3" d="M1241 354 c0 -11 3 -14 6 -6 3 7 2 16 -1 19 -3 4 -6 -2 -5 -13z" class="svg-elem-27"></path>
<path stroke="navy" stroke-width="3" d="M904 325 c-16 -12 -17 -14 -3 -15 9 0 19 7 23 15 7 19 5 19 -20 0z" class="svg-elem-28"></path>

<path stroke="navy" stroke-width="3" d="M1005 160 c3 -5 11 -10 16 -10 6 0 7 5 4 10 -3 6 -11 10 -16 10 -6 0
-7 -4 -4 -10z" class="svg-elem-29"></path>
<path stroke="navy" stroke-width="3" d="M1015 60 c-3 -5 -15 -10 -26 -10 -10 0 -19 -4 -19 -10 0 -16 20 -12
47 10 14 11 21 20 15 20 -6 0 -14 -4 -17 -10z" class="svg-elem-30"></path>
</g>
</svg>











